HIERARCHY
ROOT Hips
{
	OFFSET 0.000000 83.214638 0.000000
	CHANNELS 6 Xposition Yposition Zposition Xrotation Yrotation Zrotation
	JOINT Pelvis
	{
		OFFSET 0.000000 0.000000 0.000000
		CHANNELS 3 Xrotation Yrotation Zrotation
		JOINT LeftUpLeg
		{
			OFFSET 8.479700 -4.795502 -0.379100
			CHANNELS 3 Xrotation Yrotation Zrotation
			JOINT LeftLeg
			{
				OFFSET 0.024144 -32.555107 0.112900
				CHANNELS 3 Xrotation Yrotation Zrotation
				JOINT LeftFoot
				{
					OFFSET -0.024144 -32.638630 -3.012600
					CHANNELS 3 Xrotation Yrotation Zrotation
					JOINT LeftToeBase
					{
						OFFSET 0.970200 -13.225400 11.864200
						CHANNELS 3 Xrotation Yrotation Zrotation
						End Site
						{
							OFFSET 0.000000 12.319262 0.000000
						}
					}
					JOINT LFootTongue
					{
						OFFSET 1.142400 -1.059800 6.665200
						CHANNELS 3 Xrotation Yrotation Zrotation
						End Site
						{
							OFFSET 0.000000 12.319262 0.000000
						}
					}
				}
				JOINT LeftPantLeg
				{
					OFFSET 0.918482 -16.533964 -2.284700
					CHANNELS 3 Xrotation Yrotation Zrotation
					End Site
					{
						OFFSET 0.350399 24.744368 0.000000
					}
				}
			}
		}
		JOINT RightUpLeg
		{
			OFFSET -8.479700 -4.795502 -0.379100
			CHANNELS 3 Xrotation Yrotation Zrotation
			JOINT RightLeg
			{
				OFFSET -0.023144 -32.555092 0.112900
				CHANNELS 3 Xrotation Yrotation Zrotation
				JOINT RightFoot
				{
					OFFSET 0.023144 -32.638641 -3.012700
					CHANNELS 3 Xrotation Yrotation Zrotation
					JOINT RightToeBase
					{
						OFFSET -0.970200 -13.225400 11.864200
						CHANNELS 3 Xrotation Yrotation Zrotation
						End Site
						{
							OFFSET 0.000000 12.319244 0.000000
						}
					}
					JOINT RFootTongue
					{
						OFFSET -1.142200 -1.059800 6.665200
						CHANNELS 3 Xrotation Yrotation Zrotation
						End Site
						{
							OFFSET 0.000000 12.319243 0.000000
						}
					}
				}
				JOINT RightPantLeg
				{
					OFFSET -0.919482 -16.533978 -2.284800
					CHANNELS 3 Xrotation Yrotation Zrotation
					End Site
					{
						OFFSET -0.350400 24.744419 0.000000
					}
				}
			}
		}
	}
	JOINT Spine
	{
		OFFSET 0.000000 7.722000 1.166200
		CHANNELS 3 Xrotation Yrotation Zrotation
		JOINT Spine1
		{
			OFFSET 0.000000 12.024101 0.248800
			CHANNELS 3 Xrotation Yrotation Zrotation
			JOINT Spine2
			{
				OFFSET 0.000000 11.502998 -0.491200
				CHANNELS 3 Xrotation Yrotation Zrotation
				JOINT Neck
				{
					OFFSET 0.000000 18.430702 -3.123100
					CHANNELS 3 Xrotation Yrotation Zrotation
					JOINT Head
					{
						OFFSET 0.000000 9.051102 1.034000
						CHANNELS 3 Xrotation Yrotation Zrotation
						JOINT HairB
						{
							OFFSET 0.208400 24.786102 24.822300
							CHANNELS 3 Xrotation Yrotation Zrotation
							End Site
							{
								OFFSET 0.000000 32.263779 0.000000
							}
						}
						JOINT HairA
						{
							OFFSET -7.081100 24.428299 23.196600
							CHANNELS 3 Xrotation Yrotation Zrotation
							End Site
							{
								OFFSET 0.000000 32.263779 0.000000
							}
						}
						JOINT Hat
						{
							OFFSET 16.728800 15.048294 -15.439601
							CHANNELS 3 Xrotation Yrotation Zrotation
							End Site
							{
								OFFSET 0.000000 32.263779 0.000000
							}
						}
					}
				}
				JOINT LeftShoulder
				{
					OFFSET 6.197800 13.665199 -4.064700
					CHANNELS 3 Xrotation Yrotation Zrotation
					JOINT LeftArm
					{
						OFFSET 7.778100 -0.187103 -1.709300
						CHANNELS 3 Xrotation Yrotation Zrotation
						JOINT LeftForeArm
						{
							OFFSET 22.049376 0.000000 0.000000
							CHANNELS 3 Xrotation Yrotation Zrotation
							JOINT LeftHand
							{
								OFFSET 23.009392 0.000000 0.000000
								CHANNELS 3 Xrotation Yrotation Zrotation
								JOINT LeftHandThumb1
								{
									OFFSET 3.507191 -2.063065 3.133727
									CHANNELS 3 Xrotation Yrotation Zrotation
									JOINT LeftHandThumb2
									{
										OFFSET 3.101337 -1.790558 1.790558
										CHANNELS 3 Xrotation Yrotation Zrotation
										JOINT LeftHandThumb3
										{
											OFFSET 3.058640 -1.765907 1.765906
											CHANNELS 3 Xrotation Yrotation Zrotation
											End Site
											{
												OFFSET -0.415260 3.926476 -0.049563
											}
										}
									}
								}
								JOINT LeftHandIndex1
								{
									OFFSET 11.334419 -0.901459 3.706815
									CHANNELS 3 Xrotation Yrotation Zrotation
									JOINT LeftHandIndex2
									{
										OFFSET 3.283112 0.000000 0.000000
										CHANNELS 3 Xrotation Yrotation Zrotation
										JOINT LeftHandIndex3
										{
											OFFSET 3.323853 0.000000 0.000000
											CHANNELS 3 Xrotation Yrotation Zrotation
											End Site
											{
												OFFSET -1.135597 3.097809 0.402452
											}
										}
									}
								}
								JOINT LeftHandMiddle1
								{
									OFFSET 11.335861 0.000000 0.000000
									CHANNELS 3 Xrotation Yrotation Zrotation
									JOINT LeftHandMiddle2
									{
										OFFSET 3.410492 0.000000 0.000000
										CHANNELS 3 Xrotation Yrotation Zrotation
										JOINT LeftHandMiddle3
										{
											OFFSET 3.312172 0.000000 0.000000
											CHANNELS 3 Xrotation Yrotation Zrotation
											End Site
											{
												OFFSET -1.150200 3.080154 0.400270
											}
										}
									}
								}
								JOINT LeftHandRing1
								{
									OFFSET 11.514786 -0.013176 -3.003090
									CHANNELS 3 Xrotation Yrotation Zrotation
									JOINT LeftHandRing2
									{
										OFFSET 3.053307 0.000000 0.000000
										CHANNELS 3 Xrotation Yrotation Zrotation
										JOINT LeftHandRing3
										{
											OFFSET 3.295807 0.000000 0.000000
											CHANNELS 3 Xrotation Yrotation Zrotation
											End Site
											{
												OFFSET -1.281006 3.013344 0.375733
											}
										}
									}
								}
								JOINT LeftHandPinky1
								{
									OFFSET 10.518692 -0.960396 -5.730441
									CHANNELS 3 Xrotation Yrotation Zrotation
									JOINT LeftHandPinky2
									{
										OFFSET 2.861649 0.000000 0.000000
										CHANNELS 3 Xrotation Yrotation Zrotation
										JOINT LeftHandPinky3
										{
											OFFSET 2.863380 0.000000 0.000000
											CHANNELS 3 Xrotation Yrotation Zrotation
											End Site
											{
												OFFSET -0.843597 2.711159 0.369971
											}
										}
									}
								}
							}
							JOINT LSleeve
							{
								OFFSET 6.676277 -0.344902 -1.011730
								CHANNELS 3 Xrotation Yrotation Zrotation
								End Site
								{
									OFFSET 0.000000 14.885353 0.000000
								}
							}
						}
					}
				}
				JOINT RightShoulder
				{
					OFFSET -6.197800 13.665199 -4.064700
					CHANNELS 3 Xrotation Yrotation Zrotation
					JOINT RightArm
					{
						OFFSET -7.778100 -0.187103 -1.709300
						CHANNELS 3 Xrotation Yrotation Zrotation
						JOINT RightForeArm
						{
							OFFSET -22.049376 0.000000 0.000000
							CHANNELS 3 Xrotation Yrotation Zrotation
							JOINT RightHand
							{
								OFFSET -23.009392 0.000000 0.000000
								CHANNELS 3 Xrotation Yrotation Zrotation
								JOINT RightHandThumb1
								{
									OFFSET -3.507191 -2.063065 3.133727
									CHANNELS 3 Xrotation Yrotation Zrotation
									JOINT RightHandThumb2
									{
										OFFSET -3.101337 -1.790558 1.790558
										CHANNELS 3 Xrotation Yrotation Zrotation
										JOINT RightHandThumb3
										{
											OFFSET -3.058640 -1.765907 1.765906
											CHANNELS 3 Xrotation Yrotation Zrotation
											End Site
											{
												OFFSET 0.415260 3.926476 -0.049563
											}
										}
									}
								}
								JOINT RightHandIndex1
								{
									OFFSET -11.334419 -0.901459 3.706815
									CHANNELS 3 Xrotation Yrotation Zrotation
									JOINT RightHandIndex2
									{
										OFFSET -3.283112 0.000000 0.000000
										CHANNELS 3 Xrotation Yrotation Zrotation
										JOINT RightHandIndex3
										{
											OFFSET -3.323853 0.000000 0.000000
											CHANNELS 3 Xrotation Yrotation Zrotation
											End Site
											{
												OFFSET 1.135597 3.097809 0.402452
											}
										}
									}
								}
								JOINT RightHandMiddle1
								{
									OFFSET -11.335861 0.000000 0.000000
									CHANNELS 3 Xrotation Yrotation Zrotation
									JOINT RightHandMiddle2
									{
										OFFSET -3.410492 0.000000 0.000000
										CHANNELS 3 Xrotation Yrotation Zrotation
										JOINT RightHandMiddle3
										{
											OFFSET -3.312172 0.000000 0.000000
											CHANNELS 3 Xrotation Yrotation Zrotation
											End Site
											{
												OFFSET 1.150200 3.080154 0.400270
											}
										}
									}
								}
								JOINT RightHandRing1
								{
									OFFSET -11.514786 -0.013176 -3.003090
									CHANNELS 3 Xrotation Yrotation Zrotation
									JOINT RightHandRing2
									{
										OFFSET -3.053307 0.000000 0.000000
										CHANNELS 3 Xrotation Yrotation Zrotation
										JOINT RightHandRing3
										{
											OFFSET -3.295807 0.000000 0.000000
											CHANNELS 3 Xrotation Yrotation Zrotation
											End Site
											{
												OFFSET 1.281006 3.013344 0.375733
											}
										}
									}
								}
								JOINT RightHandPinky1
								{
									OFFSET -10.518692 -0.960396 -5.730441
									CHANNELS 3 Xrotation Yrotation Zrotation
									JOINT RightHandPinky2
									{
										OFFSET -2.861649 0.000000 0.000000
										CHANNELS 3 Xrotation Yrotation Zrotation
										JOINT RightHandPinky3
										{
											OFFSET -2.863380 0.000000 0.000000
											CHANNELS 3 Xrotation Yrotation Zrotation
											End Site
											{
												OFFSET 0.843597 2.711159 0.369971
											}
										}
									}
								}
							}
							JOINT RSleeve
							{
								OFFSET -6.676277 -0.344902 -1.011730
								CHANNELS 3 Xrotation Yrotation Zrotation
								End Site
								{
									OFFSET 0.000000 14.885353 0.000000
								}
							}
						}
					}
				}
				JOINT Backpack
				{
					OFFSET 0.000000 -2.471497 36.677502
					CHANNELS 3 Xrotation Yrotation Zrotation
					End Site
					{
						OFFSET 0.000000 20.427315 0.000000
					}
				}
				JOINT Hood
				{
					OFFSET 0.000000 18.754097 -10.431000
					CHANNELS 3 Xrotation Yrotation Zrotation
					JOINT Hood1
					{
						OFFSET 0.000000 -5.011002 -7.685901
						CHANNELS 3 Xrotation Yrotation Zrotation
						End Site
						{
							OFFSET 0.000000 9.175140 0.000000
						}
					}
				}
				JOINT LHoodieString
				{
					OFFSET 5.250500 16.397697 3.089900
					CHANNELS 3 Xrotation Yrotation Zrotation
					JOINT LHoodieString1
					{
						OFFSET 0.257700 -6.364304 3.694600
						CHANNELS 3 Xrotation Yrotation Zrotation
						JOINT LHoodieString2
						{
							OFFSET 0.000000 -9.643799 2.679100
							CHANNELS 3 Xrotation Yrotation Zrotation
							End Site
							{
								OFFSET 0.000000 10.009018 0.000000
							}
						}
					}
				}
				JOINT RHoodieString
				{
					OFFSET -5.250500 16.397697 3.089900
					CHANNELS 3 Xrotation Yrotation Zrotation
					JOINT RHoodieString1
					{
						OFFSET -0.257700 -6.364304 3.694600
						CHANNELS 3 Xrotation Yrotation Zrotation
						JOINT RHoodieString2
						{
							OFFSET 0.000000 -9.643799 2.679100
							CHANNELS 3 Xrotation Yrotation Zrotation
							End Site
							{
								OFFSET 0.000000 10.009018 0.000000
							}
						}
					}
				}
			}
			JOINT LBackpack_Strap
			{
				OFFSET 15.223200 -7.719803 -6.610900
				CHANNELS 3 Xrotation Yrotation Zrotation
				End Site
				{
					OFFSET 0.000000 16.040596 0.000000
				}
			}
			JOINT RBackpack_Strap
			{
				OFFSET -15.223000 -7.719803 -6.610900
				CHANNELS 3 Xrotation Yrotation Zrotation
				End Site
				{
					OFFSET 0.000000 16.040596 0.000000
				}
			}
		}
	}
	JOINT BoyFacialAnim_Joint
	{
		OFFSET 1.000000 -82.208099 -1.550900
		CHANNELS 3 Xrotation Yrotation Zrotation
		End Site
		{
			OFFSET 0.000000 30.012791 0.000000
		}
	}
}
MOTION
Frames: 4
Frame Time: 0.033333
3.975417 74.537636 8.797398 -2.616699 -43.331605 2.406263 -0.000000 0.000002 0.000000 -28.590284 10.973651 19.107061 28.184308 -9.471446 5.740412 -0.378031 -4.096249 -21.164692 0.000000 -0.000002 0.000000 0.000000 -0.000002 -0.000000 -0.000001 -0.000000 0.000000 -15.042290 -14.528314 -22.132972 50.286482 -8.437563 5.089974 -29.529353 -9.880565 13.656869 0.000000 -0.000000 0.000000 0.000000 -0.000000 0.000000 0.000000 -0.000000 0.000000 10.132812 5.703512 4.694684 -0.402969 0.986985 -3.490084 -0.350312 0.918093 -3.515551 6.012332 2.293279 -3.006829 12.686730 10.974174 -15.290480 -0.000001 0.000000 0.000000 -0.000001 0.000000 0.000000 -0.000001 0.000000 0.000000 0.590223 -11.270491 -9.432319 -27.306722 1.084774 -42.728116 -0.000003 -120.415921 0.000002 -3.863165 -6.073446 8.931146 -3.232570 7.712000 13.013343 13.519235 22.977564 -16.827551 -0.000001 0.000002 -0.000003 2.797737 6.274899 -80.086529 6.997852 6.880219 -90.973721 -0.000001 0.000003 -0.000003 3.591418 6.226058 -74.263663 6.650135 6.877327 -88.071027 0.000001 -0.000002 -0.000002 4.500247 6.539228 -78.473724 7.505039 6.852999 -95.214080 -0.000000 -0.000004 -0.000001 10.413012 7.390661 -82.635850 6.996332 2.794002 -90.964692 0.000000 0.000001 -0.000000 -0.000002 -0.000002 0.000004 2.173421 20.764028 -0.627188 -59.243340 29.478878 71.163563 0.000049 110.953985 -0.000036 -15.442745 16.045042 -18.420310 4.890343 -4.392716 -1.811101 13.463791 -31.161782 3.892426 -0.000003 0.000001 0.000001 3.891350 -6.353373 73.928315 7.817947 -6.893859 97.208004 -0.000000 0.000001 0.000004 4.517605 -6.523201 72.786054 8.447965 -6.785217 102.494638 -0.000000 0.000001 -0.000000 4.845581 -6.623955 72.502533 8.702488 -6.724185 104.658504 -0.000000 0.000000 0.000002 5.863232 -6.909049 74.509967 7.817955 -6.893873 97.207976 -0.000000 0.000000 -0.000001 -0.000001 0.000001 0.000000 0.000000 -0.000002 0.000000 0.000000 -0.000002 0.000000 0.000000 -0.000002 0.000000 0.000000 -0.000002 0.000000 0.000000 -0.000002 0.000000 0.000000 -0.000001 0.000000 0.000000 -0.000002 0.000000 0.000000 -0.000002 0.000000 0.000000 -0.000001 0.000000 -0.000000 0.000002 -0.000000 -0.000000 0.000002 -0.000000 -0.000000 0.000002 0.000000 
3.877330 74.509399 8.851913 -2.273259 -42.344779 2.515082 0.000000 -0.000001 -0.000000 -29.375899 10.790940 19.254360 28.415636 -9.260326 5.428333 -0.366271 -5.165331 -20.813637 -0.000000 0.000000 0.000000 -0.000000 0.000000 0.000000 -0.000000 0.000000 0.000002 -14.744160 -14.709577 -21.856146 50.138202 -8.381228 5.448957 -29.659618 -10.827982 13.431356 -0.000000 -0.000000 0.000000 -0.000000 -0.000000 0.000000 0.000002 -0.000001 0.000002 10.021674 5.581015 4.750692 -0.369865 0.963610 -3.470690 -0.318605 0.895578 -3.494951 5.792519 2.194786 -3.009255 12.096824 10.373550 -14.722884 -0.000001 -0.000001 0.000000 -0.000001 -0.000001 0.000000 -0.000001 -0.000001 0.000000 0.571531 -11.988655 -9.747220 -27.329561 0.553620 -42.209049 -0.000057 -120.176960 -0.000054 -4.300448 -5.923324 8.694171 -3.232571 7.711996 13.013335 13.519235 22.977556 -16.827551 0.000002 0.000002 -0.000001 2.797734 6.274899 -80.086536 6.997852 6.880216 -90.973721 0.000000 -0.000002 -0.000002 3.591416 6.226058 -74.263670 6.650135 6.877327 -88.071034 0.000001 0.000000 0.000000 4.500247 6.539230 -78.473724 7.505039 6.852998 -95.214080 0.000002 -0.000002 -0.000003 10.413010 7.390660 -82.635850 6.996332 2.794003 -90.964692 0.000002 -0.000000 -0.000000 0.000001 0.000002 0.000001 2.172857 20.647928 -0.700882 -59.497792 29.169047 71.058351 0.000006 111.507551 -0.000005 -15.120128 16.398956 -18.358019 4.890342 -4.392716 -1.811100 13.463791 -31.161778 3.892424 -0.000000 0.000001 0.000001 3.891351 -6.353376 73.928315 7.817946 -6.893861 97.208004 -0.000000 0.000001 -0.000002 4.517605 -6.523202 72.786054 8.447965 -6.785220 102.494631 0.000002 0.000000 -0.000000 4.845581 -6.623955 72.502533 8.702490 -6.724187 104.658497 0.000000 0.000000 0.000000 5.863232 -6.909050 74.509960 7.817954 -6.893872 97.207969 -0.000001 -0.000001 0.000000 -0.000001 -0.000003 -0.000000 0.000000 -0.000001 0.000000 0.000000 -0.000001 0.000000 0.000000 -0.000001 0.000000 0.000000 -0.000001 0.000000 0.000000 -0.000001 0.000000 -0.000000 -0.000001 0.000000 0.000000 -0.000001 0.000000 0.000000 -0.000001 0.000000 -0.000000 -0.000001 0.000000 0.000000 0.000001 0.000000 0.000000 0.000001 0.000000 0.000000 -0.000001 -0.000000 
3.798995 74.380791 9.013439 -1.858506 -41.656303 2.730118 0.000000 -0.000000 0.000001 -30.414634 10.314267 19.190682 29.587519 -9.259576 5.433663 -0.676911 -5.567855 -20.613123 -0.000000 -0.000002 0.000000 -0.000000 -0.000002 0.000000 0.000000 -0.000001 -0.000003 -14.794388 -14.888564 -21.941645 50.367379 -8.380129 5.795181 -29.899191 -11.383723 13.438689 -0.000000 -0.000000 -0.000000 -0.000000 -0.000000 -0.000000 -0.000001 0.000002 -0.000000 9.784915 5.578188 4.987756 -0.296628 0.961708 -3.594302 -0.243766 0.892112 -3.617263 5.608291 2.132388 -3.033933 11.555568 9.967041 -14.311208 -0.000000 -0.000001 0.000000 -0.000000 -0.000001 0.000000 -0.000000 -0.000001 0.000000 0.583512 -12.244417 -9.546613 -26.880066 0.464880 -42.553895 -0.000001 -120.286434 -0.000003 -4.904872 -6.171572 8.242793 -3.232570 7.712000 13.013336 13.519234 22.977554 -16.827554 0.000001 -0.000001 -0.000002 2.797737 6.274902 -80.086536 6.997851 6.880217 -90.973721 -0.000001 0.000002 -0.000001 3.591420 6.226061 -74.263670 6.650137 6.877329 -88.071034 -0.000000 0.000001 0.000000 4.500253 6.539228 -78.473724 7.505040 6.852999 -95.214080 -0.000000 0.000001 -0.000002 10.413013 7.390663 -82.635850 6.996337 2.794005 -90.964692 -0.000001 0.000002 0.000000 0.000002 0.000004 -0.000001 2.226641 20.718301 -1.002818 -59.928660 28.818781 71.160073 -0.000000 111.842797 -0.000005 -14.720861 16.423333 -18.442453 4.890342 -4.392715 -1.811101 13.463789 -31.161782 3.892425 -0.000000 0.000003 -0.000001 3.891351 -6.353375 73.928315 7.817946 -6.893860 97.208004 -0.000001 0.000000 0.000002 4.517605 -6.523202 72.786054 8.447963 -6.785217 102.494638 0.000000 0.000000 0.000001 4.845582 -6.623956 72.502533 8.702490 -6.724186 104.658504 0.000001 0.000000 0.000002 5.863234 -6.909050 74.509960 7.817954 -6.893870 97.207963 -0.000001 -0.000000 -0.000001 0.000000 -0.000000 -0.000001 0.000000 -0.000002 -0.000000 0.000000 -0.000002 -0.000000 0.000000 -0.000002 -0.000000 0.000000 -0.000002 -0.000000 0.000000 -0.000002 0.000000 -0.000000 -0.000000 0.000000 0.000000 -0.000002 -0.000000 0.000000 -0.000002 0.000000 -0.000000 -0.000000 0.000000 -0.000000 -0.000001 0.000000 -0.000000 -0.000001 0.000000 0.000000 -0.000000 0.000001 
3.731311 74.108299 9.247238 -1.380957 -41.423567 2.818829 -0.000000 -0.000000 -0.000000 -31.535465 9.695809 19.253899 31.497325 -9.433632 5.655939 -1.932502 -5.100615 -20.565011 0.000000 -0.000002 -0.000000 0.000000 -0.000002 -0.000000 0.000001 0.000002 0.000001 -15.187602 -14.959473 -22.042808 51.090095 -8.430036 6.100877 -30.232777 -11.877486 13.626123 0.000000 0.000000 -0.000000 0.000000 0.000000 -0.000000 0.000001 0.000001 0.000000 9.545790 5.978217 5.487572 -0.318418 1.023796 -3.741496 -0.259387 0.953405 -3.765893 5.459050 2.058974 -3.145572 11.389731 9.336582 -13.897342 -0.000000 -0.000003 -0.000000 -0.000000 -0.000003 -0.000000 -0.000000 -0.000003 -0.000000 0.543589 -12.310671 -10.165702 -26.373292 0.179062 -42.421950 -0.000002 -120.564382 -0.000003 -5.926095 -6.159687 7.344155 -3.232572 7.711998 13.013338 13.519233 22.977554 -16.827549 0.000002 0.000002 0.000002 2.797735 6.274899 -80.086529 6.997854 6.880218 -90.973721 -0.000001 0.000002 -0.000003 3.591418 6.226059 -74.263670 6.650134 6.877328 -88.071034 0.000000 -0.000002 -0.000002 4.500248 6.539229 -78.473724 7.505040 6.852999 -95.214087 -0.000000 -0.000001 -0.000004 10.413012 7.390662 -82.635850 6.996335 2.794005 -90.964698 -0.000000 0.000000 -0.000000 0.000001 0.000002 -0.000004 2.341833 20.513244 -1.890493 -60.287409 28.173731 71.763671 0.000115 112.060134 -0.000118 -14.533958 16.525091 -18.402273 4.890342 -4.392716 -1.811101 13.463792 -31.161789 3.892425 -0.000001 0.000007 -0.000000 3.891350 -6.353373 73.928308 7.817946 -6.893861 97.208010 -0.000001 -0.000000 0.000002 4.517605 -6.523202 72.786054 8.447966 -6.785217 102.494631 -0.000001 0.000001 0.000002 4.845581 -6.623955 72.502533 8.702491 -6.724186 104.658504 0.000000 0.000000 0.000002 5.863232 -6.909050 74.509960 7.817957 -6.893870 97.207969 0.000001 -0.000000 -0.000001 -0.000001 -0.000000 -0.000002 0.000000 0.000000 -0.000000 0.000000 0.000000 -0.000000 0.000000 0.000000 -0.000000 0.000000 0.000000 -0.000000 0.000000 0.000000 0.000000 -0.000000 0.000000 0.000000 0.000000 0.000000 -0.000000 0.000000 0.000000 0.000000 -0.000000 0.000000 0.000000 -0.000000 0.000000 -0.000001 -0.000000 0.000000 -0.000001 -0.000000 -0.000000 -0.000000 
